<svg width="4096" height="4096" viewBox="0 0 4096 4096" fill="none" xmlns="http://www.w3.org/2000/svg">
<rect width="4096" height="4096" fill="white"/>
<path d="M2536.37 2202.99C2538.12 2189.77 2540.46 2174.8 2543.57 2158.87L2644.45 2185.3C2634.14 2213.87 2625.59 2238.36 2622.48 2248.47C2611.6 2284.04 2604.4 2289.68 2593.52 2293.18C2567.28 2301.73 2546.09 2293.57 2536.96 2267.52C2529.96 2247.5 2533.65 2225.73 2536.37 2202.99Z" fill="#FE9784"/>
<path d="M2585.16 2011.92C2597.99 1984.32 2618.01 1982.96 2647.17 1991.32C2682.35 2001.42 2700.23 2039.33 2687.01 2072.37C2675.93 2099.97 2658.63 2146.42 2644.64 2185.3L2543.76 2158.86C2553.67 2105.8 2570.2 2043.8 2585.16 2011.92Z" fill="#60CAF4"/>
<path d="M2555.87 2557.83C2553.63 2565.62 2548.19 2572.13 2540.83 2575.71C2513.67 2588.92 2526.27 2549.33 2532.6 2519.86C2534.3 2511.92 2535.83 2504.08 2537.1 2496.17L2570.73 2502.33C2566.38 2519.66 2561.4 2538.25 2555.87 2557.83Z" fill="#FE9784"/>
<path d="M2518.92 2528.43C2517.46 2530.18 2515.99 2531.92 2515.79 2534.28C2515.74 2534.98 2515.79 2535.85 2516.35 2536.43C2517.08 2536.9 2517.85 2536.68 2518.79 2536.37C2523.48 2534.78 2544.75 2520.7 2542.29 2514.49C2539.29 2506.57 2520.96 2526.13 2518.92 2528.43Z" fill="#FE9784"/>
<path d="M2616.42 2275.53C2612.87 2312.14 2587.84 2428.94 2573.25 2493.47C2570.72 2505.03 2569.95 2509.52 2558.01 2509.45C2542.08 2509.45 2534.87 2509.8 2537.36 2494.67C2545.29 2447 2534.21 2285.51 2532.68 2267.32C2529.59 2233.19 2538.28 2219.87 2565.4 2219.03C2608.89 2218.16 2620.1 2239.52 2616.42 2275.53Z" fill="#FE9784"/>
<path d="M2585.74 2389.59C2603.43 2336.72 2660.58 2308.34 2713.45 2325.83C2766.32 2343.52 2794.89 2400.66 2777.2 2453.53C2729.77 2595.62 2697.51 2733.82 2680.6 2867.35C2673.8 2921.78 2624.23 2960.46 2569.61 2954.43C2513.24 2948.21 2473.4 2896.9 2480.59 2840.72C2499.05 2694.56 2534.24 2543.92 2585.74 2389.59Z" fill="#2186C4"/>
<path d="M2694.79 2386.28C2697.12 2324.08 2743.96 2275.68 2799.75 2278.02C2855.53 2280.54 2898.69 2333.02 2896.55 2395.42C2890.52 2562.77 2903.54 2708.16 2917.54 2858.22C2923.37 2919.06 2890.72 2987.67 2836.68 2998.17C2780.9 3009.05 2728.22 2966.48 2719.47 2903.7C2696.54 2740.82 2688.18 2568.02 2694.79 2386.28Z" fill="#3FA5D8"/>
<path d="M2732.88 3400.91V3450.28C2732.88 3457.08 2727.25 3462.72 2720.44 3462.72H2617.82C2602.85 3462.72 2598.77 3442.31 2612.57 3436.48C2650.08 3420.73 2694.79 3401.49 2717.92 3390.99C2724.72 3387.88 2732.88 3392.94 2732.88 3400.91Z" fill="#1D113E"/>
<path d="M2974.68 3397.6V3446.97C2974.68 3453.77 2969.05 3459.41 2962.24 3459.41H2859.62C2844.65 3459.41 2840.57 3439 2854.37 3433.17C2891.88 3417.43 2936.59 3398.18 2959.72 3387.69C2966.52 3384.58 2974.68 3389.83 2974.68 3397.6Z" fill="#1D113E"/>
<path d="M2918.12 2866.57C2925.7 3020.91 2952.91 3165.52 3000.15 3299.25C3017.64 3349.01 2995.09 3405.18 2945.72 3425.98C2934.84 3430.64 2923.56 3433.17 2912.29 3433.95C2868.17 3436.86 2825.79 3410.82 2810.63 3368.05C2756.6 3215.86 2725.11 3052.01 2716.56 2878.04C2713.84 2821.67 2759.32 2774.05 2817.05 2773.66C2870.5 2773.28 2915.4 2814.09 2918.12 2866.57Z" fill="#3FA5D8"/>
<path d="M2681.38 2851.03C2689.15 3008.66 2716.56 3156.19 2763.98 3292.83C2781.67 3343.57 2759.13 3400.91 2709.75 3422.09C2698.87 3426.76 2687.6 3429.48 2676.32 3430.06C2632.2 3432.98 2589.83 3406.35 2574.47 3362.61C2520.05 3207.12 2488.56 3039.76 2479.62 2862.1C2476.7 2804.57 2522.19 2755.98 2579.91 2755.78C2633.75 2755.59 2678.65 2797.38 2681.38 2851.03Z" fill="#2186C4"/>
<path d="M2870.11 2196.38C2854.95 2152.26 2933.09 2083.84 2926.48 2038.55C2922.79 2012.51 2844.26 1930.67 2716.95 1926.79C2676.32 1925.62 2610.43 1964.5 2594.3 1994.43C2538.51 2098.42 2617.04 2219.32 2594.1 2352.85C2586.72 2395.81 2575.05 2423.02 2617.04 2451.01C2646.78 2470.84 2672.05 2506.21 2709.56 2503.1C2779.92 2497.46 2864.86 2512.24 2887.8 2451.79C2914.04 2383.17 2891.69 2259.55 2870.11 2196.38Z" fill="#60CAF4"/>
<path d="M2593.91 2353.05C2586.52 2396 2558.14 2444.4 2600.13 2472.39C2629.87 2492.22 2671.85 2506.41 2709.37 2503.49L2593.91 2353.05Z" fill="#60CAF4"/>
<path d="M2785.95 1809.77C2781.09 1793.64 2758.35 1770.51 2740.66 1766.43C2729.39 1763.9 2732.69 1759.62 2721.22 1761.37C2709.75 1763.12 2697.7 1765.46 2692.46 1774.98C2688.18 1782.75 2680.4 1791.89 2680.6 1800.44C2680.79 1802.97 2680.79 1805.5 2681.96 1807.83C2683.32 1810.16 2685.65 1812.1 2687.99 1813.66C2699.26 1821.43 2713.06 1827.27 2722.78 1836.98C2729.97 1844.37 2735.61 1891.21 2748.24 1890.63C2771.95 1889.66 2791 1826.68 2785.95 1809.77Z" fill="#1D113E"/>
<path d="M2708.59 1896.66C2706.64 1895.3 2704.31 1895.1 2701.98 1894.52C2690.71 1891.41 2683.9 1879.75 2680.79 1868.47C2674.18 1845.54 2677.88 1819.69 2690.32 1799.47C2697.7 1787.61 2709.56 1776.73 2723.56 1776.54C2740.27 1776.34 2753.88 1791.31 2757.96 1807.25C2762.04 1823.38 2758.74 1840.29 2755.63 1856.62C2752.71 1871.58 2756.4 1943.31 2743.19 1953.03C2702.37 1982.96 2718.5 1903.27 2708.59 1896.66Z" fill="#FE9784"/>
<path d="M2747.07 1842.04C2749.99 1837.57 2755.24 1834.26 2760.68 1834.65C2766.12 1834.85 2771.37 1839.12 2771.95 1844.37C2772.54 1849.23 2769.82 1853.7 2767.29 1857.78C2762.82 1864.78 2757.57 1872.36 2749.6 1875.08C2748.82 1875.28 2748.05 1875.47 2747.27 1875.28C2746.3 1875.08 2745.71 1874.3 2745.32 1873.53C2740.08 1865.17 2743.77 1854.09 2747.66 1844.95L2747.07 1842.04Z" fill="#FE9784"/>
<path d="M2712.48 1865.75C2712.48 1870.61 2708.01 1874.89 2701.79 1875.28C2695.57 1875.86 2690.32 1872.36 2689.73 1867.5L2712.48 1865.75Z" fill="white"/>
<path d="M2988.68 2241.48C2992.37 2265 2997.04 2287.74 2989.84 2308.15C2980.71 2334.58 2958.16 2342.16 2929.59 2332.25C2917.73 2328.17 2909.57 2322.14 2896.93 2285.02C2892.46 2271.99 2875.36 2239.53 2856.7 2204.35L2971.57 2164.12C2978.96 2192.49 2985.18 2219.9 2988.68 2241.48Z" fill="#FE9784"/>
<path d="M2863.31 2018.73C2894.6 2011.34 2912.87 2007.45 2927.45 2036.41C2941.45 2064.01 2958.55 2115.33 2971.57 2164.31L2856.7 2204.55C2839.21 2171.31 2820.35 2135.74 2809.47 2111.44C2794.11 2076.84 2825.41 2027.67 2863.31 2018.73Z" fill="#60CAF4"/>
<path d="M2729.77 1963.52C2715.07 1963.52 2703.15 1956.47 2703.15 1947.78C2703.15 1939.08 2715.07 1932.03 2729.77 1932.03C2744.48 1932.03 2756.4 1939.08 2756.4 1947.78C2756.4 1956.47 2744.48 1963.52 2729.77 1963.52Z" fill="#FE9784"/>
<path d="M2681.18 1794.42C2709.75 1781.2 2778.17 1855.64 2778.17 1855.64C2778.17 1855.64 2825.99 1803.75 2752.52 1767.4C2752.52 1767.4 2711.12 1742.52 2690.9 1768.76C2686.04 1774.98 2681.18 1794.42 2681.18 1794.42Z" fill="#60CAF4"/>
<path d="M2760.1 2097.83H2822.69C2825.41 2097.83 2827.74 2100.17 2827.74 2102.89V2128.16C2827.74 2130.88 2825.41 2133.21 2822.69 2133.21H2760.1C2757.38 2133.21 2755.04 2130.88 2755.04 2128.16V2102.89C2755.04 2100.17 2757.18 2097.83 2760.1 2097.83Z" fill="white"/>
<path d="M2695.57 2213.29C2689.35 2209.21 2684.87 2202.01 2683.51 2193.85C2678.46 2163.53 2710.53 2185.88 2734.83 2199.49C2741.44 2203.18 2747.85 2206.68 2754.65 2209.79L2740.85 2241.86C2726.47 2233.31 2711.31 2223.59 2695.57 2213.29Z" fill="#FE9784"/>
<path d="M2730.55 2183.74C2729.39 2181.8 2728.03 2179.85 2726.28 2179.08C2725.69 2178.88 2724.92 2178.69 2724.33 2179.08C2723.75 2179.66 2723.75 2180.63 2723.75 2181.41C2723.94 2186.46 2731.14 2211.34 2737.16 2210.37C2744.74 2209.4 2732.11 2186.27 2730.55 2183.74Z" fill="#FE9784"/>
<path d="M2957.38 2262.27C2988.29 2267.71 2998.01 2279.57 2991.79 2306.98C2982.07 2350.71 2960.49 2356.54 2929.4 2344.1C2919.48 2340.21 2903.15 2332.05 2883.91 2321.94L2911.71 2253.14C2934.64 2257.99 2952.14 2261.3 2957.38 2262.27Z" fill="#FE9784"/>
<path d="M2755.63 2210.57C2783.23 2224.17 2860.78 2242.25 2911.71 2253.13L2883.91 2321.94C2841.54 2299.78 2784.59 2267.71 2747.85 2246.72C2738.33 2241.28 2734.63 2239.33 2737.55 2227.48C2741.44 2211.54 2742.99 2204.35 2755.63 2210.57Z" fill="#FE9784"/>
<g clip-path="url(#clip0)">
<path d="M2315.34 1788.05C2364 1780.86 2413.63 1812.69 2438.44 1857.71C2446.59 1872.46 2452.79 1888.77 2465 1899.83C2474.89 1908.75 2487.69 1913.22 2499.9 1918.26C2532.47 1931.46 2566.59 1953 2575.51 1988.32C2586.36 2030.05 2556.9 2071.58 2523.16 2096.03C2498.74 2113.69 2470.43 2126.69 2440.77 2129.41C2410.92 2132.12 2379.51 2123.78 2356.63 2103.21C2331.43 2080.7 2319.02 2045.96 2315.53 2011.61C2312.43 1979.78 2310.69 1957.08 2282.19 1939.8C2263 1928.16 2241.48 1923.31 2235.86 1897.89C2224.42 1847.82 2270.36 1794.84 2315.34 1788.05Z" fill="#000543"/>
<path d="M2366.91 2006.18C2337.83 2022.87 2330.27 2060.52 2349.46 2087.11C2422.16 2187.44 2448.72 2234.4 2461.91 2263.9C2469.27 2280.2 2486.72 2289.32 2504.36 2285.83C2524.52 2281.75 2546.04 2273.6 2542.36 2253.42C2528.6 2175.41 2458.8 2070.42 2418.29 2013.75C2401.42 1990.46 2391.92 1991.82 2366.91 2006.18Z" fill="#E3ECFF"/>
<path d="M2237.02 2303.88C2255.05 2321.15 2253.5 2347.54 2234.11 2361.32C2213.76 2375.49 2198.64 2373.55 2184.29 2352.59C2162.58 2320.76 2145.32 2299.8 2114.89 2219.85L2152.5 2195.01C2176.92 2235.76 2206 2274.18 2237.02 2303.88Z" fill="#D2E0F9"/>
<path d="M2065.06 2043.44C2081.16 2021.51 2089.49 2050.04 2097.63 2075.27C2100.15 2070.42 2103.06 2066.15 2104.42 2064.98C2105 2064.4 2105.78 2064.01 2106.55 2064.01C2107.33 2064.21 2107.71 2064.79 2108.1 2065.37C2108.88 2067.31 2108.49 2069.25 2108.1 2071.19C2107.71 2072.74 2105.19 2081.48 2101.9 2087.49C2113.72 2122.04 2131.56 2159.3 2152.89 2195.01L2115.28 2219.85C2101.12 2182.59 2084.06 2132.71 2062.54 2062.65C2060.22 2056.05 2060.99 2048.87 2065.06 2043.44Z" fill="#EF9F90"/>
<path d="M2308.56 1991.63C2277.93 1977.85 2243.03 1993.57 2232.76 2024.62C2193.6 2142.22 2171.11 2191.32 2154.82 2219.07C2145.71 2234.6 2148.62 2254.2 2161.61 2266.23C2176.54 2280.2 2195.15 2268.75 2209.49 2254.2C2264.75 2197.53 2308.56 2116.99 2330.85 2051.01C2340.16 2023.84 2334.73 2003.46 2308.56 1991.63Z" fill="#D2E0F9"/>
<path d="M2478.58 2695.5C2459.39 2775.85 2444.07 2864.53 2442.91 2945.65C2442.33 2982.53 2440.97 3004.26 2405.3 3013.58C2364.39 3024.25 2319.42 3000.77 2312.05 2959.82C2300.22 2892.67 2285.88 2805.34 2278.9 2695.5H2478.58Z" fill="#EF9F90"/>
<path d="M2470.24 3378.61C2477.61 3425.58 2431.86 3475.07 2383.59 3473.71C2355.09 3472.93 2397.74 3440.91 2408.21 3410.25C2416.35 3410.64 2424.3 3410.05 2432.25 3407.72C2447.95 3402.68 2460.36 3391.81 2470.24 3378.61Z" fill="#91B4DE"/>
<path d="M2470.44 3377.84C2470.44 3378.03 2470.44 3378.23 2470.24 3378.42C2460.16 3391.62 2447.75 3402.48 2432.25 3407.34C2424.49 3409.66 2416.35 3410.44 2408.21 3409.86C2410.34 3403.84 2411.11 3397.83 2409.76 3392C2392.5 3312.63 2372.53 3240.83 2354.7 3170.38L2441.94 3156.99C2445.04 3227.24 2453.57 3301.96 2470.44 3377.84Z" fill="#EF9F90"/>
<path d="M2397.54 2728.88L2398.71 2729.08C2443.1 2737.62 2467.72 2747.12 2458.8 2791.76C2456.09 2805.54 2451.05 2880.06 2449.11 2895C2439.22 2967.78 2436.9 3042.88 2442.13 3157.38L2354.89 3170.77C2327.17 3061.9 2304.29 2956.91 2302.74 2833.87C2301.97 2782.83 2347.33 2719.18 2397.54 2728.88Z" fill="#EF9F90"/>
<path d="M2272.11 2280.01L2453.96 2435.84C2452.6 2452.73 2449.69 2466.7 2444.27 2474.27C2308.37 2657.47 2262.81 2723.64 2227.91 2853.86C2218.02 2890.73 2182.35 2914.8 2144.55 2909.95C2105 2904.71 2076.31 2869.97 2078.44 2830.18C2087.75 2663.09 2135.63 2487.08 2272.11 2280.01Z" fill="#EF9F90"/>
<path d="M2280.45 3368.52C2290.92 3414.71 2248.65 3466.72 2200.77 3468.66C2172.47 3469.83 2212.6 3435.28 2220.93 3404.04C2229.07 3404.04 2237.02 3402.68 2244.58 3399.77C2259.71 3393.95 2271.34 3382.3 2280.45 3368.52Z" fill="#91B4DE"/>
<path d="M2221.32 3386.18C2163.94 3188.63 2093.56 3039.78 2077.67 2839.11C2073.59 2788.46 2114.5 2722.28 2164.91 2728.69L2166.07 2728.88C2210.85 2734.51 2241.68 2775.65 2235.86 2820.29C2234.11 2834.26 2232.56 2848.43 2231.59 2863.37C2223.65 2980.59 2223.06 3171.74 2280.45 3367.94C2280.45 3368.14 2280.45 3368.33 2280.25 3368.52C2271.14 3382.3 2259.51 3393.95 2244.39 3399.77C2236.83 3402.68 2228.88 3403.84 2220.74 3404.04C2222.48 3397.83 2222.87 3391.81 2221.32 3386.18Z" fill="#EF9F90"/>
<path d="M2075.92 2709.67C2074.18 2737.81 2105 2773.52 2129.43 2792.53C2144.36 2804.18 2204.84 2822.23 2224.81 2825.53C2297.31 2837.17 2375.25 2846.48 2442.52 2820.67C2469.08 2810.39 2461.71 2815.43 2483.81 2799.13C2509.21 2780.31 2530.53 2775.07 2510.37 2749.45C2475.09 2705.01 2484.59 2338.61 2447.37 2317.07C2423.91 2303.49 2377.96 2394.89 2349.66 2393.34C2308.95 2391.01 2264.75 2395.86 2229.46 2414.3C2198.64 2430.41 2175.18 2327.36 2168.2 2355.69C2147.26 2440.11 2081.16 2623.31 2075.92 2709.67Z" fill="#6D72A0"/>
<path d="M2391.92 2193.46C2382.23 2151.54 2396.96 2085.75 2394.05 2042.67C2392.31 2018.02 2420.61 2019.38 2406.27 1999.2C2391.92 1979.21 2333.57 1938.45 2308.95 1941.95C2277.93 1946.41 2257.18 1976.1 2243.23 2004.24C2195.15 2101.66 2237.02 2172.5 2175.96 2321.15C2160.25 2359.19 2175.37 2409.45 2206.39 2436.62C2228.49 2455.83 2260.09 2459.33 2289.37 2457C2344.04 2452.53 2426.24 2418.77 2446.98 2361.9C2470.82 2296.89 2405.69 2253.62 2391.92 2193.46Z" fill="#91B4DE"/>
<path d="M2351.6 1955.53C2379.32 1970.28 2402.97 1993.18 2411.31 2003.66C2425.65 2021.9 2395.6 2028.5 2397.35 2050.82C2400.26 2089.63 2389.98 2130.97 2399.48 2168.81C2408.98 2206.26 2435.73 2235.37 2446.59 2269.34C2449.11 2277.49 2452.79 2285.05 2456.28 2292.82C2484.59 2355.69 2497.77 2601.77 2500.68 2649.12C2503.78 2699.19 2467.14 2703.07 2435.93 2707.92C2405.3 2712.78 2394.44 2714.72 2369.24 2714.72C2360.71 2714.72 2353.54 2708.51 2351.4 2700.16V1955.53H2351.6Z" fill="#E3ECFF"/>
<path d="M2166.84 2309.7C2167.43 2307.76 2171.3 2288.74 2174.79 2280.78C2235.67 2147.07 2193.21 2057.22 2265.91 1968.53L2201.74 2677.84C2200.96 2690.65 2189.91 2699.77 2178.09 2697.64C2145.13 2691.62 2134.47 2684.44 2124.58 2677.84C2100.15 2661.74 2073.01 2633.21 2074.76 2609.34C2079.8 2535.98 2145.91 2381.12 2166.84 2309.7Z" fill="#E3ECFF"/>
<path d="M2292.27 1937.1C2290.34 1935.93 2288.01 1935.93 2285.68 1935.54C2274.44 1933.41 2267.07 1922.73 2263 1912.06C2254.86 1890.33 2256.22 1865.1 2266.68 1844.33C2272.89 1832.11 2283.36 1820.85 2296.93 1819.49C2313.02 1817.94 2327.56 1831.33 2332.79 1846.47C2338.03 1861.8 2336.28 1878.49 2334.54 1894.6C2332.79 1909.34 2334.92 1953.01 2323.87 1964.46C2301 1988.13 2302.36 1942.53 2292.27 1937.1Z" fill="#EF9F90"/>
<path d="M2323.49 1884.31C2326.01 1879.65 2330.85 1876.16 2336.09 1875.97C2341.32 1875.77 2346.75 1879.46 2347.91 1884.5C2348.88 1889.16 2346.56 1893.63 2344.42 1897.9C2340.55 1905.08 2336.28 1912.84 2328.72 1916.14C2327.95 1916.53 2327.17 1916.72 2326.39 1916.53C2325.43 1916.33 2324.84 1915.56 2324.26 1914.97C2318.45 1907.21 2321.16 1896.34 2324.07 1887.22L2323.49 1884.31Z" fill="#EF9F90"/>
<path d="M2293.44 1906.63C2294.02 1911.29 2289.75 1915.75 2283.94 1916.72C2278.12 1917.69 2272.69 1914.78 2271.53 1910.12L2293.44 1906.63Z" fill="white"/>
<path d="M2281.42 1819.3C2287.04 1857.14 2317.86 1889.94 2355.28 1897.89C2359.35 1876.55 2354.5 1850.93 2340.35 1834.43C2326.2 1817.74 2301.77 1811.34 2281.42 1819.3Z" fill="#000543"/>
<path d="M2463.26 2273.8C2463.46 2248.57 2485.17 2228.97 2510.18 2231.1C2536.35 2233.24 2547.98 2251.67 2542.36 2277.29C2540.23 2286.41 2538.48 2294.76 2536.35 2303.3L2463.07 2287.19C2463.07 2282.73 2463.26 2278.26 2463.26 2273.8Z" fill="#E3ECFF"/>
<path d="M2387.85 2542.77C2382.23 2544.91 2376.8 2546.27 2374.67 2546.27C2373.89 2546.27 2372.92 2546.27 2372.53 2545.68C2372.15 2545.1 2372.34 2544.32 2372.53 2543.55C2373.5 2541.61 2375.25 2540.25 2377.19 2538.89C2378.74 2537.92 2387.27 2532.68 2394.05 2530.55C2394.25 2530.55 2394.25 2530.35 2394.44 2530.35C2427.79 2466.7 2447.56 2399.55 2459.19 2331.24C2461.32 2318.43 2462.49 2303.29 2463.07 2286.99L2536.35 2303.29C2525.3 2347.54 2506.11 2394.7 2404.33 2575.57C2400.64 2582.17 2394.44 2587.21 2387.07 2588.77C2358.19 2595.17 2374.08 2567.61 2387.85 2542.77Z" fill="#EF9F90"/>
<path d="M2313.79 2134.27H2373.12C2374.47 2134.27 2375.44 2135.24 2375.44 2136.6V2165.32C2375.44 2166.68 2374.47 2167.65 2373.12 2167.65H2313.79C2312.44 2167.65 2311.47 2166.68 2311.47 2165.32V2136.6C2311.47 2135.24 2312.44 2134.27 2313.79 2134.27Z" fill="white"/>
<path d="M2289.95 1967.18C2289.95 1976.3 2300.22 1983.86 2313.02 1983.86C2325.81 1983.86 2336.09 1976.49 2336.09 1967.18C2336.09 1958.05 2325.81 1950.49 2313.02 1950.49C2300.22 1950.49 2289.95 1958.05 2289.95 1967.18Z" fill="#EF9F90"/>
<path d="M2369.24 2100.3C2370.21 2100.3 2370.98 2099.72 2371.18 2098.75C2391.34 1988.52 2353.54 1954.95 2351.98 1953.59C2351.21 1952.81 2350.05 1953.01 2349.27 1953.78C2348.69 1954.56 2348.69 1955.72 2349.46 1956.5C2349.85 1956.89 2387.27 1990.46 2367.49 2098.17C2367.3 2099.14 2368.08 2100.11 2369.04 2100.3C2369.04 2100.3 2369.04 2100.3 2369.24 2100.3Z" fill="#6D72A0"/>
<path d="M2245.17 2043.25C2246.13 2043.25 2246.91 2042.47 2247.1 2041.5C2250.98 1986.77 2274.05 1960.96 2274.24 1960.57C2275.02 1959.8 2274.83 1958.63 2274.05 1957.86C2273.28 1957.08 2272.11 1957.28 2271.34 1958.05C2270.37 1959.22 2247.1 1985.03 2243.03 2041.11C2243.23 2042.28 2244 2043.25 2245.17 2043.25Z" fill="#6D72A0"/>
<path d="M2252.92 2108.84C2253.31 2108.84 2253.89 2108.65 2254.08 2108.45C2261.06 2102.24 2265.52 2089.82 2265.52 2076.04C2265.52 2055.67 2256.22 2039.75 2244.39 2039.75C2232.56 2039.75 2223.26 2055.67 2223.26 2076.04C2223.26 2089.63 2227.52 2101.85 2234.5 2108.07C2235.28 2108.84 2236.44 2108.65 2237.22 2107.87C2237.99 2107.09 2237.8 2105.93 2237.02 2105.15C2231.01 2099.72 2227.14 2088.27 2227.14 2075.85C2227.14 2058.19 2235.08 2043.44 2244.39 2043.44C2253.7 2043.44 2261.64 2058.38 2261.64 2075.85C2261.64 2088.46 2257.57 2099.91 2251.56 2105.35C2250.79 2106.12 2250.79 2107.29 2251.37 2108.07C2251.76 2108.65 2252.34 2108.84 2252.92 2108.84Z" fill="#6D72A0"/>
<path d="M2357.99 2101.27C2357.99 2107.68 2363.23 2112.92 2369.63 2112.92C2376.02 2112.92 2381.26 2107.68 2381.26 2101.27C2381.26 2094.87 2376.02 2089.63 2369.63 2089.63C2363.23 2089.63 2357.99 2094.68 2357.99 2101.27Z" fill="#6D72A0"/>
<path d="M2029.59 2077.01H2120.7C2123.03 2077.01 2124.77 2074.88 2124.19 2072.55L2085.81 1916.72C2085.42 1915.16 2083.87 1914 2082.32 1914H1991.2C1988.88 1914 1987.13 1916.13 1987.71 1918.46L2026.1 2074.3C2026.49 2075.85 2028.04 2077.01 2029.59 2077.01Z" fill="#6D72A0"/>
<path d="M2031.72 2050.24H2106.55C2108.49 2050.24 2109.85 2048.49 2109.46 2046.55L2077.86 1918.66C2077.47 1917.3 2076.31 1916.33 2074.95 1916.33H2000.12C1998.18 1916.33 1996.82 1918.08 1997.21 1920.02L2028.81 2047.91C2029.2 2049.26 2030.36 2050.24 2031.72 2050.24Z" fill="#F9E6DE"/>
<path d="M2094.92 2079.92C2094.92 2079.92 2103.06 2066.53 2104.42 2065.18C2105 2064.59 2105.78 2064.21 2106.55 2064.21C2107.33 2064.4 2107.71 2064.98 2108.1 2065.56C2108.88 2067.5 2108.49 2069.45 2108.1 2071.39C2107.71 2072.94 2104.81 2082.06 2101.7 2088.08L2097.63 2086.91L2094.92 2079.92Z" fill="#EF9F90"/>
<path d="M2031.33 1925.45H2052.85C2055.18 1925.45 2056.53 1923.7 2055.95 1921.37L2055.37 1919.05C2054.79 1916.72 2052.66 1914.97 2050.33 1914.97H2028.81C2026.49 1914.97 2025.13 1916.72 2025.71 1919.05L2026.29 1921.37C2026.87 1923.7 2029.01 1925.45 2031.33 1925.45Z" fill="white"/>
</g>
<g clip-path="url(#clip1)">
<path d="M1308.43 1934.11C1326.2 1908.02 1319.46 1872.47 1293.38 1854.69C1267.29 1836.92 1231.73 1843.65 1213.96 1869.74C1196.18 1895.83 1202.92 1931.38 1229.01 1949.16C1255.09 1966.93 1290.65 1960.2 1308.43 1934.11Z" fill="#000543"/>
<path d="M1509.69 2476.48C1513.78 2483.15 1520.79 2487.67 1528.58 2488.73C1559.02 2492.92 1540.32 2465.74 1523.84 2441.22C1529.87 2442.83 1535.59 2443.92 1537.66 2443.89C1538.55 2443.84 1539.45 2443.78 1539.94 2443.03C1540.26 2442.39 1540.03 2441.59 1539.81 2440.8C1538.7 2438.89 1536.73 2437.48 1534.69 2436.34C1533.02 2435.45 1523.67 2430.89 1516.37 2429.08C1516.27 2428.91 1516.1 2429.01 1516 2428.84C1508.76 2417.5 1501.53 2403.38 1494.22 2387.92L1466.5 2406.47C1479.25 2427.36 1493.58 2450.58 1509.69 2476.48Z" fill="#FE9784"/>
<path d="M1494.32 2388.09C1460.78 2317.14 1428.58 2214.85 1423.92 2197.16C1415.17 2163.55 1397.18 2124.37 1371.31 2128.89C1344.44 2133.29 1333.78 2153.34 1341.91 2179.44C1357.73 2230.52 1373.89 2257.31 1466.42 2406.74L1494.32 2388.09Z" fill="#FE9784"/>
<path d="M1366.96 2256.1C1379.79 2273.14 1398.85 2281.56 1416.09 2269.13C1431.13 2258.3 1434.54 2239.25 1429.33 2221.4C1419.9 2189.11 1409.07 2160.84 1395.24 2103.88L1301.98 2138.17C1318.63 2179.69 1340.29 2220.8 1366.96 2256.1Z" fill="#FE9784"/>
<path d="M1301.18 1966.51C1272.7 1975.33 1265.08 2004.81 1270.9 2034.09C1277.51 2066.78 1287.94 2102.68 1301.98 2137.97L1395.24 2103.68C1389.22 2078.81 1388.22 2072.6 1380.8 2034.29C1374.18 2001.4 1334.47 1956.28 1301.18 1966.51Z" fill="#88DCE5"/>
<path d="M1137.13 2571.36C1162.6 2669.22 1188.07 2828.86 1188.27 2934.35C1188.47 2972.45 1189.47 2994.91 1226.17 3004.94C1268.29 3016.57 1315.02 2992.9 1323.04 2950.79C1345.7 2831.46 1377.39 2649.97 1363.15 2392.87C1359.34 2323.08 1268.29 2293 1199.9 2306.83L1181.25 2291.19C1118.48 2303.83 1120.89 2508.99 1137.13 2571.36Z" fill="#6AC3D1"/>
<path d="M1161.6 3374.54C1154.18 3422.88 1201.51 3473.82 1251.24 3472.41C1280.52 3471.61 1236.6 3438.72 1225.77 3407.03C1217.35 3407.43 1209.13 3406.83 1200.91 3404.43C1184.86 3399.41 1172.03 3388.18 1161.6 3374.54Z" fill="#6AC3D1"/>
<path d="M1245.43 3297.13L1177.64 3283.9C1173.43 3313.58 1168.02 3343.46 1161.4 3373.74C1161.4 3373.94 1161.4 3374.14 1161.6 3374.34C1172.03 3387.98 1184.86 3399.21 1200.91 3404.03C1208.93 3406.43 1217.35 3407.23 1225.77 3406.63C1223.57 3400.42 1222.76 3394.2 1224.17 3388.38C1230.99 3357.1 1238.21 3326.81 1245.43 3297.13Z" fill="#FE9784"/>
<path d="M1280.52 3160.16L1190.48 3146.52C1188.47 3190.84 1184.46 3236.97 1177.64 3284.1L1245.43 3297.33C1257.26 3250.01 1269.29 3204.68 1280.52 3160.16Z" fill="#6AC3D1"/>
<path d="M1235.6 2704.52L1234.4 2704.72C1188.47 2713.74 1163.2 2723.57 1172.43 2769.49C1175.24 2783.73 1180.65 2860.54 1182.66 2875.78C1192.88 2950.79 1195.69 3028.2 1190.28 3146.32L1280.32 3159.96C1308.8 3047.65 1332.26 2939.16 1333.47 2812.41C1334.27 2759.87 1287.34 2694.29 1235.6 2704.52Z" fill="#6AC3D1"/>
<path d="M1229.78 2477.5C1320.23 2631.32 1353.52 2702.51 1373.38 2824.04C1379.79 2863.15 1413.89 2891.63 1453.59 2890.63C1494.91 2889.42 1528.2 2856.53 1530.2 2815.22C1536.22 2680.45 1496.91 2458.45 1432.54 2294.2L1229.78 2477.5Z" fill="#6AC3D1"/>
<path d="M1324.24 3367.73C1313.81 3415.66 1357.93 3469.4 1407.67 3470.81C1436.95 3471.81 1395.03 3436.31 1386.21 3404.02C1377.79 3404.02 1369.57 3402.82 1361.54 3399.81C1345.7 3394 1333.67 3381.96 1324.24 3367.73Z" fill="#6AC3D1"/>
<path d="M1324.04 3367.12C1324.04 3367.33 1324.04 3367.53 1324.24 3367.73C1333.67 3381.97 1345.9 3394 1361.74 3399.81C1369.77 3402.82 1377.99 3404.03 1386.41 3404.03C1384.61 3397.61 1384.21 3391.39 1385.81 3385.58C1392.83 3360.31 1400.25 3336.04 1407.67 3312.18L1341.49 3298.54C1336.07 3321.2 1330.66 3344.06 1324.04 3367.12Z" fill="#FE9784"/>
<path d="M1358.94 3203.68C1354.32 3234.76 1348.31 3266.45 1341.29 3298.54L1407.47 3312.18C1416.89 3281.69 1426.52 3252.01 1435.95 3222.93L1358.94 3203.68Z" fill="#6AC3D1"/>
<path d="M1438.95 2703.32L1437.75 2703.52C1391.42 2709.73 1359.54 2752.65 1365.96 2798.98C1367.96 2813.42 1369.57 2828.26 1370.77 2843.5C1377.39 2931.94 1380.39 3061.29 1358.94 3203.68L1435.75 3223.13C1479.06 3089.77 1519.37 2967.44 1530 2817.23C1534.01 2764.68 1491.1 2696.5 1438.95 2703.32Z" fill="#6AC3D1"/>
<path d="M1210.33 2185.1C1220.36 2141.78 1159.99 2098.07 1163 2053.74C1164.81 2028.28 1180.65 2005.41 1195.49 1984.56C1210.33 1963.7 1270.7 1921.58 1295.96 1925.19C1328.05 1929.81 1349.51 1960.49 1363.95 1989.57C1413.69 2090.24 1370.37 2163.44 1433.54 2317.06C1449.78 2356.37 1473.65 2396.88 1441.56 2424.96C1418.7 2444.81 1346.3 2465.47 1316.02 2466.07C1170.22 2469.68 1138.33 2427.76 1133.12 2372.01C1126.5 2300.82 1196.09 2247.07 1210.33 2185.1Z" fill="#88DCE5"/>
<path d="M1275.31 1891.5C1308.87 1891.5 1336.07 1861.33 1336.07 1824.12C1336.07 1786.9 1308.87 1756.73 1275.31 1756.73C1241.75 1756.73 1214.54 1786.9 1214.54 1824.12C1214.54 1861.33 1241.75 1891.5 1275.31 1891.5Z" fill="#000543"/>
<path d="M1304.79 1901.53C1306.59 1900.13 1309 1899.52 1311.21 1898.72C1322.24 1894.51 1328.05 1882.28 1330.46 1870.85C1335.27 1847.18 1329.46 1821.51 1315.22 1802.06C1306.79 1790.63 1293.96 1780.8 1279.92 1781.6C1263.08 1782.61 1250.44 1798.85 1247.63 1815.29C1245.03 1832.14 1249.64 1848.99 1254.25 1865.03C1258.46 1879.87 1266.89 1935.22 1280.12 1945.25C1307.6 1965.91 1295.36 1908.95 1304.79 1901.53Z" fill="#FE9784"/>
<path d="M1263.88 1853C1260.47 1848.58 1255.05 1845.98 1249.64 1846.58C1244.22 1847.18 1239.21 1851.99 1239.01 1857.41C1238.81 1862.22 1241.82 1866.63 1244.83 1870.44C1250.04 1877.26 1255.86 1884.48 1264.08 1886.49C1264.88 1886.69 1265.68 1886.89 1266.48 1886.49C1267.29 1886.09 1267.89 1885.28 1268.29 1884.48C1272.9 1875.66 1268.29 1864.83 1263.68 1856L1263.88 1853Z" fill="#FE9784"/>
<path d="M1295.96 1778.99C1296.77 1818.7 1270.7 1857.61 1233.59 1872.05C1225.77 1850.79 1226.37 1823.92 1238.21 1804.46C1249.84 1785.21 1273.9 1774.38 1295.96 1778.99Z" fill="#000543"/>
<path d="M1306.19 2469.48H1101.23C1094.41 2469.48 1089 2474.89 1089 2481.71V2608.06C1089 2614.88 1094.41 2620.29 1101.23 2620.29H1305.99C1312.81 2620.29 1318.23 2614.88 1318.23 2608.06V2481.71C1318.43 2474.89 1312.81 2469.48 1306.19 2469.48Z" fill="#FBE9DC"/>
<path d="M1211.73 2562.93C1211.73 2563.13 1211.94 2563.13 1211.94 2563.33C1218.15 2567.34 1225.37 2574.97 1226.58 2576.37C1228.18 2578.17 1229.58 2579.98 1229.98 2582.19C1230.19 2582.99 1229.98 2583.79 1229.38 2584.19C1228.78 2584.79 1227.78 2584.59 1226.98 2584.19C1224.97 2583.59 1219.96 2580.58 1214.94 2576.97C1221.96 2605.65 1230.19 2637.54 1203.11 2623.1C1196.29 2619.49 1191.08 2612.87 1189.47 2605.25C1138.94 2360.98 1130.71 2329.5 1133.72 2268.73C1135.13 2241.46 1151.97 2226.41 1178.64 2231.43C1204.31 2236.24 1207.72 2279.16 1204.52 2313.65C1202.51 2335.91 1195.89 2490.13 1211.73 2562.93Z" fill="#FE9784"/>
<path d="M1135.13 2269.73C1137.13 2290.99 1149.16 2308.04 1170.42 2306.43C1188.87 2305.03 1201.91 2290.59 1206.72 2272.54C1215.55 2240.25 1221.16 2210.37 1238.81 2154.42L1141.14 2135.17C1133.72 2179.09 1130.91 2225.61 1135.13 2269.73Z" fill="#FE9784"/>
<path d="M1229.98 1988.16C1201.11 1980.74 1179.05 2002 1168.82 2030.08C1157.39 2061.57 1147.56 2097.46 1141.14 2135.17L1238.61 2154.62C1246.23 2130.35 1256.26 2101.07 1269.89 2064.37C1281.73 2032.49 1263.68 1996.99 1229.98 1988.16Z" fill="#88DCE5"/>
<path d="M1290.35 1976.73C1308.4 1976.73 1323.04 1966.41 1323.04 1953.67C1323.04 1940.93 1308.4 1930.61 1290.35 1930.61C1272.3 1930.61 1257.66 1940.93 1257.66 1953.67C1257.66 1966.41 1272.3 1976.73 1290.35 1976.73Z" fill="#FE9784"/>
<path d="M1338.28 2099.67C1336.48 2099.67 1334.87 2098.26 1334.47 2096.46C1334.07 2094.25 1335.47 2092.25 1337.68 2091.85L1372.37 2085.63C1374.38 2085.23 1376.58 2086.63 1376.99 2088.84C1377.39 2091.04 1375.98 2093.05 1373.78 2093.45L1339.08 2099.67C1338.68 2099.67 1338.48 2099.67 1338.28 2099.67Z" fill="#6AC3D1"/>
</g>
<g clip-path="url(#clip2)">
<path d="M1704.7 2001.84C1725.61 1979.54 1743.58 1970.55 1768.78 1987.76C1806.68 2013.57 1873.3 2081.81 1909.05 2127.77C1923.31 2145.95 1937.57 2162.96 1941.87 2183.89C1947.34 2211.07 1933.28 2228.86 1906.32 2235.12C1895.18 2237.66 1885.8 2236.68 1858.26 2211.46C1839.31 2194.25 1753.35 2123.66 1711.93 2092.37C1683.6 2070.67 1679.5 2028.62 1704.7 2001.84Z" fill="#E3ECFF"/>
<path d="M1790.08 2472.12C1785.39 2478.77 1778.16 2483.27 1770.15 2484.44C1740.06 2488.35 1764.87 2454.52 1780.31 2428.51C1784.41 2421.47 1788.32 2414.44 1792.22 2407.4L1822.31 2424.02C1812.35 2439.27 1801.6 2455.11 1790.08 2472.12Z" fill="#943437"/>
<path d="M1764.48 2432.23C1762.53 2433.41 1760.58 2434.77 1759.6 2436.73C1759.21 2437.32 1759.01 2438.29 1759.4 2438.88C1759.79 2439.66 1760.77 2439.66 1761.75 2439.66C1766.63 2439.66 1791.44 2433.21 1791.25 2426.37C1790.86 2417.96 1767.02 2430.67 1764.48 2432.23Z" fill="#FE9784"/>
<path d="M1938.55 2222.61C1923.31 2256.44 1861.97 2359.49 1827.39 2416.39C1821.14 2426.56 1818.99 2430.47 1807.85 2426.75C1792.62 2421.67 1785.78 2419.52 1793.01 2406.03C1815.86 2363.01 1857.28 2205.79 1861.58 2187.99C1869.59 2154.36 1882.09 2144.58 1908.27 2152.6C1949.88 2165.51 1953.59 2189.36 1938.55 2222.61Z" fill="#943437"/>
<path d="M1591.98 3411.52V3461.19C1591.98 3468.03 1597.64 3473.7 1604.48 3473.7H1707.63C1722.68 3473.7 1726.78 3453.17 1712.91 3447.3C1675.2 3431.47 1630.27 3412.11 1607.02 3401.55C1599.99 3398.42 1591.98 3403.5 1591.98 3411.52Z" fill="#1D113E"/>
<path d="M1757.06 2773.26C1703.14 2772.28 1657.23 2813.15 1653.91 2866.34C1643.94 3022.58 1614.25 3168.65 1564.82 3303.58C1546.46 3353.64 1568.14 3410.93 1617.57 3432.44C1628.51 3437.33 1639.84 3440.07 1650.98 3440.85C1695.32 3444.37 1738.3 3418.56 1754.32 3375.34C1811.17 3221.84 1845.17 3056.21 1856.69 2880.03C1860.21 2823.12 1815.08 2774.43 1757.06 2773.26Z" fill="#4E5682"/>
<path d="M1792.42 2407.98C1779.53 2353.42 1724.82 2319.79 1670.32 2332.7C1615.81 2345.6 1582.01 2400.36 1595.1 2454.91C1629.88 2601.57 1649.61 2742.95 1654.49 2878.27C1656.45 2933.41 1702.55 2976.63 1757.65 2975.65C1814.69 2974.67 1859.23 2926.76 1857.08 2869.66C1851.61 2721.24 1830.12 2567.16 1792.42 2407.98Z" fill="#4E5682"/>
<path d="M1430.8 3411.52V3461.19C1430.8 3468.03 1436.47 3473.7 1443.31 3473.7H1546.46C1561.5 3473.7 1565.6 3453.17 1551.73 3447.3C1514.03 3431.47 1469.1 3412.11 1445.85 3401.55C1439.01 3398.42 1430.8 3403.5 1430.8 3411.52Z" fill="#1D113E"/>
<path d="M1492.15 2859.89C1484.33 3018.47 1456.79 3166.89 1409.12 3304.36C1391.34 3355.4 1414 3413.08 1463.63 3434.4C1474.57 3439.09 1485.9 3441.83 1497.23 3442.42C1541.57 3445.35 1584.16 3418.56 1599.6 3374.56C1654.3 3218.12 1685.95 3049.76 1694.93 2871.03C1697.86 2813.15 1652.15 2764.26 1594.13 2764.07C1539.82 2763.87 1494.69 2805.91 1492.15 2859.89Z" fill="#6D72A0"/>
<path d="M1686.92 2441.42C1681.06 2385.69 1631.25 2345.21 1575.57 2350.88C1519.89 2356.75 1480.43 2362.42 1486.29 2418.15C1501.92 2568.13 1502.5 2755.07 1489.8 2890C1484.72 2944.95 1524.77 2993.64 1579.67 2999.7C1636.33 3005.96 1686.73 2964.31 1692 2907.4C1705.48 2759.77 1703.92 2604.11 1686.92 2441.42Z" fill="#6D72A0"/>
<path d="M1511.1 2212.83C1526.34 2168.44 1447.8 2099.61 1454.44 2054.04C1458.15 2027.84 1537.08 1945.52 1665.04 1941.61C1705.87 1940.43 1772.1 1979.54 1788.32 2009.66C1844.39 2114.27 1765.46 2235.9 1788.51 2370.24C1795.94 2413.46 1807.66 2440.83 1765.46 2468.99C1735.57 2488.94 1694.15 2492.07 1656.45 2489.13C1585.73 2483.46 1515.01 2493.24 1491.95 2432.42C1465.58 2363.4 1489.41 2276.38 1511.1 2212.83Z" fill="#91B4DE"/>
<path d="M1597.84 2720.07V1950.6C1508.75 1973.67 1455.62 2032.34 1452.68 2053.65C1446.04 2099.21 1524.58 2168.05 1509.34 2212.43C1464.8 2342.08 1473.59 2385.88 1476.91 2417.76C1487.85 2522.96 1475.35 2646.54 1470.27 2757.42C1469.68 2769.15 1479.06 2778.73 1490.78 2778.73H1539.23C1571.47 2778.93 1597.84 2752.53 1597.84 2720.07Z" fill="#E3ECFF"/>
<path d="M1776.6 2778.93H1842.82C1854.15 2778.93 1863.14 2769.15 1861.97 2757.81C1850.83 2644.59 1825.44 2528.05 1797.3 2408.96C1796.13 2397.03 1793.2 2384.13 1790.66 2369.07C1767.41 2234.34 1846.73 2112.71 1790.66 2007.7C1782.46 1992.25 1756.47 1975.44 1732.25 1961.94L1732.64 2735.13C1732.83 2759.18 1752.37 2778.93 1776.6 2778.93Z" fill="#E3ECFF"/>
<path d="M1643.75 1943.95C1653.13 1942.97 1663.29 1942.58 1672.47 1943.76C1685.17 1945.32 1692.98 1958.62 1688.68 1970.74L1682.04 1988.93C1676.96 2003.01 1658.79 2006.72 1648.44 1995.97L1631.44 1977.98C1619.72 1965.85 1627.14 1945.91 1643.75 1943.95Z" fill="#943437"/>
<path d="M1599.6 1801.4C1604.48 1785.17 1624.02 1777.35 1641.99 1773.24C1653.32 1770.7 1671.3 1765.81 1682.82 1767.57C1694.35 1769.33 1697.28 1770.11 1702.55 1779.7C1706.85 1787.52 1708.8 1804.73 1708.41 1813.33C1708.22 1815.87 1708.22 1818.41 1707.05 1820.76C1705.68 1823.11 1703.33 1825.06 1700.99 1826.63C1689.66 1834.45 1675.79 1840.31 1666.02 1850.09C1658.79 1857.52 1653.13 1904.65 1640.43 1904.06C1616.59 1902.89 1594.52 1818.22 1599.6 1801.4Z" fill="#1D113E"/>
<path d="M1680.09 1909.93C1682.04 1908.56 1684.38 1908.36 1686.73 1907.78C1698.06 1904.65 1704.9 1892.91 1708.02 1881.57C1714.67 1858.5 1710.95 1832.49 1698.45 1812.15C1691.03 1800.23 1679.11 1789.28 1665.04 1789.08C1648.24 1788.88 1634.57 1803.94 1630.46 1819.98C1626.36 1836.21 1629.68 1853.22 1632.81 1869.64C1635.74 1884.7 1635.93 1950.4 1648.24 1961.35C1673.83 1984.04 1670.12 1916.57 1680.09 1909.93Z" fill="#943437"/>
<path d="M1643.36 1858.31C1640.43 1853.81 1635.15 1850.48 1629.68 1850.87C1624.21 1851.07 1618.94 1855.37 1618.35 1860.65C1617.77 1865.54 1620.5 1870.04 1623.04 1874.14C1627.53 1881.18 1632.81 1888.81 1640.82 1891.55C1641.6 1891.74 1642.38 1891.94 1643.16 1891.74C1644.14 1891.55 1644.73 1890.77 1645.12 1889.98C1650.39 1881.58 1646.68 1870.43 1642.77 1861.24L1643.36 1858.31Z" fill="#943437"/>
<path d="M1676.18 1878.84C1676.18 1883.73 1680.67 1888.03 1686.92 1888.42C1693.18 1889.01 1698.45 1885.49 1699.04 1880.6L1676.18 1878.84Z" fill="white"/>
<path d="M1623.04 1847.74C1644.33 1823.3 1669.15 1806.68 1700.01 1797.29C1688.1 1785.76 1672.86 1779.69 1656.45 1778.33C1648.83 1777.74 1640.82 1777.35 1633.79 1780.48C1621.87 1785.56 1615.23 1799.05 1614.84 1812.15C1614.25 1824.87 1618.94 1835.42 1623.04 1847.74Z" fill="#1D113E"/>
<path d="M1527.12 2032.34C1497.81 2018.65 1480.43 2011.41 1460.3 2037.03C1430.02 2075.55 1380.4 2170.2 1359.3 2227.1C1350.9 2249.59 1341.91 2271.1 1344.84 2292.61C1348.56 2320.57 1369.26 2332.3 1399.55 2328.39C1412.05 2326.83 1421.23 2322.33 1441.16 2288.31C1454.64 2265.04 1530.05 2179.39 1561.89 2134.41C1583.58 2103.32 1562.48 2048.76 1527.12 2032.34Z" fill="#E3ECFF"/>
<path d="M1617.96 2129.72H1558.18C1556.81 2129.72 1555.84 2130.7 1555.84 2132.07V2161.01C1555.84 2162.38 1556.81 2163.35 1558.18 2163.35H1617.96C1619.33 2163.35 1620.31 2162.38 1620.31 2161.01V2132.07C1620.5 2130.7 1619.33 2129.72 1617.96 2129.72Z" fill="white"/>
<path d="M1744.75 2040.75C1743.77 2040.75 1742.99 2039.97 1742.8 2038.99C1738.89 1983.85 1715.64 1957.84 1715.45 1957.45C1714.67 1956.67 1714.86 1955.49 1715.64 1954.71C1716.42 1953.93 1717.6 1954.12 1718.38 1954.91C1719.35 1956.08 1742.8 1982.09 1746.9 2038.6C1746.71 2039.77 1745.92 2040.55 1744.75 2040.75C1744.95 2040.75 1744.75 2040.75 1744.75 2040.75Z" fill="#6D72A0"/>
<path d="M1736.94 2106.65C1736.55 2106.65 1735.96 2106.45 1735.77 2106.26C1728.73 2100 1724.24 2087.48 1724.24 2073.6C1724.24 2053.07 1733.62 2037.03 1745.53 2037.03C1757.45 2037.03 1766.83 2053.07 1766.83 2073.6C1766.83 2087.29 1762.53 2099.61 1755.5 2105.87C1754.72 2106.65 1753.54 2106.45 1752.76 2105.67C1751.98 2104.89 1752.18 2103.72 1752.96 2102.93C1759.01 2097.46 1762.92 2085.92 1762.92 2073.41C1762.92 2055.61 1754.91 2040.75 1745.53 2040.75C1736.16 2040.75 1728.15 2055.81 1728.15 2073.41C1728.15 2086.12 1732.25 2097.65 1738.3 2103.13C1739.09 2103.91 1739.09 2105.08 1738.5 2105.87C1738.11 2106.45 1737.52 2106.65 1736.94 2106.65Z" fill="#6D72A0"/>
<path d="M1563.46 2101.76C1562.48 2101.76 1561.7 2101.17 1561.5 2100.19C1541.18 1989.12 1579.28 1955.29 1580.84 1953.93C1581.62 1953.34 1582.8 1953.34 1583.58 1954.12C1584.16 1954.9 1584.16 1956.08 1583.38 1956.86C1582.99 1957.25 1545.29 1991.08 1565.21 2099.61C1565.41 2100.58 1564.63 2101.56 1563.65 2101.76H1563.46Z" fill="#6D72A0"/>
<path d="M1574.79 2102.74C1574.79 2109.19 1569.51 2114.47 1563.06 2114.47C1556.62 2114.47 1551.34 2109.19 1551.34 2102.74C1551.34 2096.28 1556.62 2091 1563.06 2091C1569.51 2091 1574.79 2096.28 1574.79 2102.74Z" fill="#6D72A0"/>
<path d="M1778.74 2110.75H1676.96C1672.66 2110.75 1668.36 2114.27 1667.39 2118.58L1634.18 2281.46C1633.2 2285.77 1636.13 2289.29 1640.43 2289.29H1742.21C1746.51 2289.29 1750.81 2285.77 1751.78 2281.46L1785 2118.58C1785.97 2114.27 1783.04 2110.75 1778.74 2110.75Z" fill="white"/>
<path d="M1655.45 2297.04C1662.88 2295.48 1669.71 2290.59 1674.01 2283.55C1690.03 2257.15 1651.94 2265.95 1624 2269.47C1616.57 2270.45 1609.15 2271.23 1601.73 2271.62L1602.51 2306.82C1619.11 2303.89 1636.7 2300.76 1655.45 2297.04Z" fill="#943437"/>
<path d="M1633.96 2256.17C1635.72 2254.8 1637.67 2253.43 1639.82 2253.43C1640.6 2253.43 1641.39 2253.63 1641.58 2254.22C1641.97 2255 1641.58 2255.98 1641.19 2256.76C1639.04 2261.26 1623.02 2281.79 1617.75 2278.86C1610.91 2274.75 1631.42 2258.13 1633.96 2256.17Z" fill="#943437"/>
<path d="M1393.08 2243.85C1362.21 2237.21 1348.73 2244.64 1344.24 2272.6C1336.82 2317.18 1354.59 2330.68 1388.2 2330.68C1398.94 2330.68 1417.11 2329.31 1438.99 2327.16V2252.46C1415.74 2248.35 1398.16 2245.03 1393.08 2243.85Z" fill="#943437"/>
<path d="M1600.36 2271.82C1569.49 2274.16 1490.37 2261.65 1438.79 2252.46V2327.16C1486.66 2322.46 1551.91 2314.06 1593.91 2308.39C1604.85 2306.82 1609.15 2306.43 1610.71 2294.31C1613.25 2278.08 1614.43 2270.84 1600.36 2271.82Z" fill="#943437"/>
</g>
<path d="M2048.49 1066.13L1690.78 713.27L1782.29 623L2048.49 885.587L2314.49 623L2406 713.27L2048.49 1066.13Z" fill="#07172E"/>
<rect x="1690.78" y="1065.14" width="711.19" height="134.544" fill="#07172E"/>
<path d="M1697.81 1260.48H1724.73C1727.08 1260.48 1728.99 1262.42 1728.99 1264.8V1358.47L1773.24 1304.34C1774.03 1303.34 1775.24 1302.76 1776.5 1302.77H1808.09C1809.76 1302.79 1811.26 1303.79 1811.94 1305.33C1812.62 1306.87 1812.36 1308.67 1811.26 1309.94L1768.67 1358.37C1767.32 1359.98 1767.32 1362.35 1768.67 1363.96L1821.1 1429.58C1822.15 1430.87 1822.37 1432.66 1821.66 1434.17C1820.95 1435.69 1819.44 1436.65 1817.79 1436.64H1786.2C1784.88 1436.65 1783.63 1436.03 1782.83 1434.96L1747.68 1389.68C1746.88 1388.65 1745.66 1388.05 1744.36 1388.05C1743.07 1388.05 1741.85 1388.65 1741.05 1389.68L1730.35 1402.59C1729.7 1403.37 1729.34 1404.36 1729.35 1405.38V1432.42C1729.35 1434.81 1727.43 1436.74 1725.08 1436.74H1698.16C1695.8 1436.74 1693.89 1434.81 1693.89 1432.42V1264.7C1693.93 1262.49 1695.63 1260.66 1697.81 1260.48Z" fill="#07172E"/>
<path fill-rule="evenodd" clip-rule="evenodd" d="M1882.32 1300.03C1845.81 1300.03 1822.56 1331.08 1822.56 1369.66C1822.56 1408.23 1845.81 1439.29 1882.32 1439.24C1897.64 1439.24 1914.31 1433.34 1923.6 1420.48V1432.27C1923.6 1434.64 1925.48 1436.57 1927.82 1436.59H1953.99C1956.34 1436.59 1958.26 1434.66 1958.26 1432.27V1307.04C1958.26 1304.66 1956.34 1302.72 1953.99 1302.72H1927.82C1925.48 1302.75 1923.6 1304.67 1923.6 1307.04V1319.04C1913.47 1306.61 1898.24 1299.6 1882.32 1300.03ZM1891.51 1333.22C1909.74 1333.22 1923 1348.77 1923 1369.66H1922.8C1922.8 1391.11 1909.54 1406.1 1891.51 1406.05C1872.48 1406.05 1858.72 1390.55 1858.72 1369.66C1858.72 1348.77 1872.48 1333.22 1891.51 1333.22Z" fill="#07172E"/>
<path d="M1989.64 1260.48H2016.56C2018.9 1260.51 2020.78 1262.44 2020.78 1264.8V1319.65C2030.38 1306.75 2045.62 1299.43 2061.56 1300.08C2095.91 1300.08 2108.62 1322.03 2108.62 1359.54V1432.32C2108.62 1433.47 2108.17 1434.57 2107.37 1435.38C2106.57 1436.19 2105.48 1436.64 2104.35 1436.64H2077.43C2075.07 1436.64 2073.16 1434.71 2073.16 1432.32V1364.07C2073.16 1344.55 2067.34 1334.08 2049.91 1334.08C2031.13 1334.08 2020.78 1349.33 2020.78 1368.64V1432.32C2020.78 1434.69 2018.9 1436.62 2016.56 1436.64H1989.64C1987.29 1436.64 1985.37 1434.71 1985.37 1432.32V1264.6C1985.48 1262.3 1987.36 1260.48 1989.64 1260.48Z" fill="#07172E"/>
<path d="M2132.02 1382.82V1307.09C2132.02 1304.71 2133.93 1302.77 2136.29 1302.77H2163.21C2165.57 1302.77 2167.48 1304.71 2167.48 1307.09V1378C2167.48 1396.75 2175.41 1405.29 2191.79 1405.29C2210.32 1405.29 2219.31 1389.53 2219.31 1371.29V1307.09C2219.31 1305.95 2219.76 1304.85 2220.56 1304.04C2221.36 1303.23 2222.44 1302.77 2223.58 1302.77H2250.49C2252.85 1302.77 2254.76 1304.71 2254.76 1307.09V1432.33C2254.76 1434.71 2252.85 1436.65 2250.49 1436.65H2225.69C2224.55 1436.65 2223.47 1436.19 2222.67 1435.38C2221.87 1434.57 2221.42 1433.47 2221.42 1432.33V1417.89C2213.48 1431.01 2195.5 1439.29 2180.18 1439.29C2143.67 1439.29 2132.02 1417.64 2132.02 1382.82Z" fill="#07172E"/>
<path d="M2285.95 1302.77H2312.07C2314.42 1302.77 2316.33 1304.71 2316.33 1307.09V1320.71C2325.98 1307.21 2341.66 1299.46 2358.12 1300.08C2393.02 1300.08 2405.23 1322.85 2405.23 1359.54V1432.33C2405.23 1433.47 2404.78 1434.57 2403.98 1435.38C2403.18 1436.19 2402.09 1436.65 2400.96 1436.65H2374.04C2371.68 1436.65 2369.77 1434.71 2369.77 1432.33V1364.07C2369.77 1344.55 2364.75 1334.08 2346.77 1334.08C2328.79 1334.08 2317.14 1348.57 2317.14 1368.9V1432.33C2317.14 1434.71 2315.23 1436.65 2312.87 1436.65H2285.95C2283.59 1436.65 2281.68 1434.71 2281.68 1432.33V1307.09C2281.68 1304.71 2283.59 1302.77 2285.95 1302.77Z" fill="#07172E"/>
<defs>
<clipPath id="clip0">
<rect width="590.319" height="1686.63" fill="white" transform="matrix(-1 0 0 1 2577.84 1787.08)"/>
</clipPath>
<clipPath id="clip1">
<rect width="441.805" height="1715.88" fill="white" transform="translate(1089 1756.73)"/>
</clipPath>
<clipPath id="clip2">
<rect width="602.302" height="1706.52" fill="white" transform="translate(1344.26 1767.18)"/>
</clipPath>
</defs>
</svg>
